# xmcd CD database file
# Copyright (C) 1995-1998 Ti Kan
#
# Track frame offsets:
#	150
#	15662
#	33585
#	57087
#	72705
#	94965
#	113136
#	143888
#	158210
#	174525
#
# Disc length: 2577 seconds
#
# Revision: 1
# Processed by: cddbd v1.4b42PL1 Copyright (c) Steve Scherf et al.
# Submitted via: CDex 1.40Beta3
#
DISCID=8b0a0f0a
DTITLE=Lay Minh and Tu Quyen - Ngay Tho
DYEAR=1900
DGENRE=Blues
TTITLE0=Tu Quyen - Ngay Tho
TTITLE1=Lay Minh - Trai Tim Lam Lo
TTITLE2=Tu Quyen - Doa Hoa Doi
TTITLE3=Lay Minh - Nguoi Xua Nhu Mong
TTITLE4=Tu Quyen - Dang Xua Ve Dau
TTITLE5=Lay Minh - Dem Yeu Duong
TTITLE6=Tu Quyen and Le Minh - Nuoi Tiec
TTITLE7=Tu Quyen - Da Bao Nam
TTITLE8=Lay Minh - Phieu Luu Tinh Ai
TTITLE9=Tu Quyen and Lay Minh - Tro Choi
EXTD=ID3G:   0
EXTT0=
EXTT1=
EXTT2=
EXTT3=
EXTT4=
EXTT5=
EXTT6=
EXTT7=
EXTT8=
EXTT9=
PLAYORDER=
